PathFileType	4	(X/Y/Z)	C:\Users\italobelli\Desktop\GitHub\PTbot_officialCBL\Personal_Results\ABD22_noisy1.trc
DataRate	CameraRate	NumFrames	NumMarkers	Units	OrigDataRate	OrigDataStartFrame	OrigNumFrames
106.125000	106.125000	21	9	m	106.125000	532	850
Frame#	Time		gu		centelbow		EpL		centpxt8		centijc7		ij		ts		aa		ai
			X1	Y1	Z1	X2	Y2	Z2	X3	Y3	Z3	X4	Y4	Z4	X5	Y5	Z5	X6	Y6	Z6	X7	Y7	Z7	X8	Y8	Z8	X9	Y9	Z9

532	5.0035	-0.11395	0.06436	0.11468	-0.071916	0.15396	0.33729	-0.085749	0.18007	0.32437	-0.046816	-0.15316	-0.008669	-0.046816	0.031938	-0.008669	0	0	0	-0.13686	-0.0067575	0.028445	-0.15289	0.074226	0.11451	-0.13835	-0.085835	0.10981
533	5.013	-0.11385	0.064114	0.11513	-0.071827	0.15118	0.33858	-0.085574	0.17748	0.32592	-0.046816	-0.15316	-0.008669	-0.046816	0.031938	-0.008669	0	0	0	-0.13685	-0.0064357	0.028291	-0.15276	0.073948	0.11489	-0.13828	-0.08596	0.10905
534	5.0224	-0.11376	0.063851	0.11561	-0.071745	0.14827	0.33987	-0.085404	0.17475	0.32749	-0.046816	-0.15316	-0.008669	-0.046816	0.031938	-0.008669	0	0	0	-0.13684	-0.0060947	0.028137	-0.15264	0.07366	0.11528	-0.13821	-0.086083	0.10826
535	5.0318	-0.11366	0.063572	0.1161	-0.071672	0.14521	0.34115	-0.08524	0.17188	0.32908	-0.046816	-0.15316	-0.008669	-0.046816	0.031938	-0.008669	0	0	0	-0.13684	-0.0057352	0.027983	-0.15251	0.073362	0.11568	-0.13814	-0.086204	0.10745
536	5.0412	-0.11357	0.063277	0.11661	-0.071607	0.14203	0.34242	-0.085082	0.16887	0.33068	-0.046816	-0.15316	-0.008669	-0.046816	0.031938	-0.008669	0	0	0	-0.13683	-0.005358	0.027829	-0.15238	0.073054	0.11609	-0.13807	-0.086322	0.10662
537	5.0506	-0.11347	0.062967	0.11715	-0.071549	0.13871	0.34369	-0.084929	0.16574	0.33229	-0.046816	-0.15316	-0.008669	-0.046816	0.031938	-0.008669	0	0	0	-0.13682	-0.0049639	0.027676	-0.15225	0.072738	0.1165	-0.13799	-0.086438	0.10577
538	5.0601	-0.11338	0.062642	0.1177	-0.0715	0.13528	0.34495	-0.084782	0.16248	0.33391	-0.046816	-0.15316	-0.008669	-0.046816	0.031938	-0.008669	0	0	0	-0.13681	-0.0045536	0.027523	-0.15212	0.072412	0.11693	-0.13792	-0.086552	0.1049
539	5.0695	-0.11328	0.062303	0.11826	-0.071458	0.13173	0.34619	-0.084641	0.15909	0.33554	-0.046816	-0.15316	-0.008669	-0.046816	0.031938	-0.008669	0	0	0	-0.13681	-0.004128	0.027371	-0.15198	0.072079	0.11736	-0.13784	-0.086663	0.10401
540	5.0789	-0.11318	0.06195	0.11885	-0.071425	0.12807	0.34742	-0.084505	0.1556	0.33717	-0.046816	-0.15316	-0.008669	-0.046816	0.031938	-0.008669	0	0	0	-0.1368	-0.0036877	0.02722	-0.15184	0.071737	0.1178	-0.13777	-0.086772	0.10311
541	5.0883	-0.11309	0.061583	0.11944	-0.071399	0.1243	0.34864	-0.084376	0.15199	0.3388	-0.046816	-0.15316	-0.008669	-0.046816	0.031938	-0.008669	0	0	0	-0.13679	-0.0032337	0.02707	-0.1517	0.071387	0.11824	-0.13769	-0.086878	0.10219
542	5.0978	-0.11299	0.061203	0.12006	-0.07138	0.12042	0.34984	-0.084253	0.14827	0.34043	-0.046816	-0.15316	-0.008669	-0.046816	0.031938	-0.008669	0	0	0	-0.13678	-0.0027667	0.026922	-0.15156	0.071031	0.1187	-0.13762	-0.086981	0.10126
543	5.1072	-0.11289	0.060811	0.12068	-0.07137	0.11645	0.35103	-0.084136	0.14446	0.34206	-0.046816	-0.15316	-0.008669	-0.046816	0.031938	-0.008669	0	0	0	-0.13677	-0.0022875	0.026775	-0.15141	0.070667	0.11915	-0.13754	-0.087082	0.10031
544	5.1166	-0.11279	0.060406	0.12132	-0.071367	0.11239	0.3522	-0.084026	0.14055	0.34369	-0.046816	-0.15316	-0.008669	-0.046816	0.031938	-0.008669	0	0	0	-0.13676	-0.0017967	0.026629	-0.15126	0.070296	0.11961	-0.13746	-0.08718	0.099356
545	5.126	-0.11269	0.05999	0.12197	-0.071372	0.10825	0.35335	-0.083921	0.13655	0.34531	-0.046816	-0.15316	-0.008669	-0.046816	0.031938	-0.008669	0	0	0	-0.13675	-0.0012954	0.026485	-0.15112	0.06992	0.12008	-0.13738	-0.087275	0.098386
546	5.1355	-0.11259	0.059562	0.12263	-0.071384	0.10402	0.35448	-0.083823	0.13246	0.34692	-0.046816	-0.15316	-0.008669	-0.046816	0.031938	-0.008669	0	0	0	-0.13674	-0.00078411	0.026343	-0.15097	0.069537	0.12055	-0.1373	-0.087368	0.097406
547	5.1449	-0.1125	0.059123	0.1233	-0.071404	0.09971	0.35558	-0.083732	0.12829	0.34852	-0.046816	-0.15316	-0.008669	-0.046816	0.031938	-0.008669	0	0	0	-0.13673	-0.00026374	0.026203	-0.15081	0.069149	0.12103	-0.13723	-0.087458	0.096417
548	5.1543	-0.1124	0.058673	0.12398	-0.071431	0.095332	0.35667	-0.083647	0.12404	0.35011	-0.046816	-0.15316	-0.008669	-0.046816	0.031938	-0.008669	0	0	0	-0.13672	0.00026494	0.026065	-0.15066	0.068755	0.1215	-0.13715	-0.087545	0.09542
549	5.1637	-0.1123	0.058213	0.12467	-0.071466	0.090887	0.35773	-0.083569	0.11973	0.35168	-0.046816	-0.15316	-0.008669	-0.046816	0.031938	-0.008669	0	0	0	-0.13671	0.00080117	0.025929	-0.1505	0.068357	0.12199	-0.13707	-0.087628	0.094415
550	5.1731	-0.1122	0.057744	0.12537	-0.071508	0.08638	0.35876	-0.083498	0.11534	0.35324	-0.046816	-0.15316	-0.008669	-0.046816	0.031938	-0.008669	0	0	0	-0.13669	0.0013442	0.025796	-0.15035	0.067954	0.12247	-0.13699	-0.087709	0.093405
551	5.1826	-0.1121	0.057266	0.12607	-0.071558	0.081816	0.35977	-0.083433	0.1109	0.35477	-0.046816	-0.15316	-0.008669	-0.046816	0.031938	-0.008669	0	0	0	-0.13668	0.0018931	0.025666	-0.15019	0.067546	0.12295	-0.13691	-0.087787	0.092389
552	5.192	-0.112	0.056778	0.12677	-0.071615	0.077201	0.36075	-0.083376	0.10639	0.35628	-0.046816	-0.15316	-0.008669	-0.046816	0.031938	-0.008669	0	0	0	-0.13667	0.0024473	0.025538	-0.15003	0.067135	0.12344	-0.13684	-0.087861	0.09137
